<mxfile host="" modified="2021-02-21T15:23:06.717Z" agent="5.0 (Macintosh; Intel Mac OS X 10_15_7) AppleWebKit/537.36 (KHTML, like Gecko) Chrome/84.0.4147.105 Safari/537.36" version="13.7.9" etag="8IV4MKm0go-TvJkbWRfu" type="embed"><diagram id="HaMNLyCiIcz9elfRZaQj" name="Page-1"><mxGraphModel dx="813" dy="645" grid="1" gridSize="10" guides="1" tooltips="1" connect="1" arrows="1" fold="1" page="1" pageScale="1" pageWidth="850" pageHeight="1100" math="0" shadow="0"><root><mxCell id="0"/><mxCell id="1" parent="0"/><mxCell id="2" value="Client" style="html=1;" vertex="1" parent="1"><mxGeometry x="40" y="120" width="120" height="50" as="geometry"/></mxCell><mxCell id="13" value="&amp;nbsp;...&lt;br&gt;&amp;nbsp;realSubject -&amp;gt;&amp;nbsp; Request();&lt;br&gt;&amp;nbsp;..." style="shape=note;whiteSpace=wrap;html=1;size=14;verticalAlign=top;align=left;spacingTop=-6;" vertex="1" parent="1"><mxGeometry x="560" y="293" width="180" height="52" as="geometry"/></mxCell><mxCell id="17" value="" style="endArrow=none;dashed=1;html=1;exitX=-0.002;exitY=0.718;exitDx=0;exitDy=0;exitPerimeter=0;" edge="1" parent="1" source="13"><mxGeometry width="50" height="50" relative="1" as="geometry"><mxPoint x="550" y="440" as="sourcePoint"/><mxPoint x="480" y="330" as="targetPoint"/></mxGeometry></mxCell><mxCell id="7" value="RealSubject" style="swimlane;fontStyle=0;childLayout=stackLayout;horizontal=1;startSize=26;fillColor=none;horizontalStack=0;resizeParent=1;resizeParentMax=0;resizeLast=0;collapsible=1;marginBottom=0;" vertex="1" parent="1"><mxGeometry x="40" y="280" width="160" height="78" as="geometry"/></mxCell><mxCell id="8" value="Request()" style="text;strokeColor=none;fillColor=none;align=left;verticalAlign=top;spacingLeft=4;spacingRight=4;overflow=hidden;rotatable=0;points=[[0,0.5],[1,0.5]];portConstraint=eastwest;" vertex="1" parent="7"><mxGeometry y="26" width="160" height="26" as="geometry"/></mxCell><mxCell id="9" value="..." style="text;strokeColor=none;fillColor=none;align=left;verticalAlign=top;spacingLeft=4;spacingRight=4;overflow=hidden;rotatable=0;points=[[0,0.5],[1,0.5]];portConstraint=eastwest;" vertex="1" parent="7"><mxGeometry y="52" width="160" height="26" as="geometry"/></mxCell><mxCell id="3" value="Subject" style="swimlane;fontStyle=0;childLayout=stackLayout;horizontal=1;startSize=26;fillColor=none;horizontalStack=0;resizeParent=1;resizeParentMax=0;resizeLast=0;collapsible=1;marginBottom=0;" vertex="1" parent="1"><mxGeometry x="320" y="120" width="160" height="78" as="geometry"/></mxCell><mxCell id="4" value="Request()" style="text;strokeColor=none;fillColor=none;align=left;verticalAlign=top;spacingLeft=4;spacingRight=4;overflow=hidden;rotatable=0;points=[[0,0.5],[1,0.5]];portConstraint=eastwest;" vertex="1" parent="3"><mxGeometry y="26" width="160" height="26" as="geometry"/></mxCell><mxCell id="5" value="..." style="text;strokeColor=none;fillColor=none;align=left;verticalAlign=top;spacingLeft=4;spacingRight=4;overflow=hidden;rotatable=0;points=[[0,0.5],[1,0.5]];portConstraint=eastwest;" vertex="1" parent="3"><mxGeometry y="52" width="160" height="26" as="geometry"/></mxCell><mxCell id="10" value="Proxy" style="swimlane;fontStyle=0;childLayout=stackLayout;horizontal=1;startSize=26;fillColor=none;horizontalStack=0;resizeParent=1;resizeParentMax=0;resizeLast=0;collapsible=1;marginBottom=0;" vertex="1" parent="1"><mxGeometry x="320" y="280" width="160" height="78" as="geometry"/></mxCell><mxCell id="11" value="Request()" style="text;strokeColor=none;fillColor=none;align=left;verticalAlign=top;spacingLeft=4;spacingRight=4;overflow=hidden;rotatable=0;points=[[0,0.5],[1,0.5]];portConstraint=eastwest;" vertex="1" parent="10"><mxGeometry y="26" width="160" height="26" as="geometry"/></mxCell><mxCell id="12" value="..." style="text;strokeColor=none;fillColor=none;align=left;verticalAlign=top;spacingLeft=4;spacingRight=4;overflow=hidden;rotatable=0;points=[[0,0.5],[1,0.5]];portConstraint=eastwest;" vertex="1" parent="10"><mxGeometry y="52" width="160" height="26" as="geometry"/></mxCell><mxCell id="21" value="" style="endArrow=block;endFill=1;html=1;edgeStyle=orthogonalEdgeStyle;align=left;verticalAlign=top;exitX=0;exitY=0.5;exitDx=0;exitDy=0;entryX=1;entryY=0.5;entryDx=0;entryDy=0;" edge="1" parent="1" source="11" target="8"><mxGeometry x="-1" relative="1" as="geometry"><mxPoint x="260" y="420" as="sourcePoint"/><mxPoint x="160" y="420" as="targetPoint"/></mxGeometry></mxCell><mxCell id="23" value="realSubject" style="text;html=1;align=center;verticalAlign=middle;resizable=0;points=[];autosize=1;" vertex="1" parent="1"><mxGeometry x="220" y="293" width="80" height="20" as="geometry"/></mxCell><mxCell id="24" value="" style="endArrow=diamondThin;endFill=0;endSize=24;html=1;exitX=0.5;exitY=0;exitDx=0;exitDy=0;" edge="1" parent="1" source="10"><mxGeometry width="160" relative="1" as="geometry"><mxPoint x="490" y="220" as="sourcePoint"/><mxPoint x="400" y="230" as="targetPoint"/></mxGeometry></mxCell><mxCell id="27" value="" style="endArrow=none;html=1;edgeStyle=orthogonalEdgeStyle;exitX=0.5;exitY=0;exitDx=0;exitDy=0;" edge="1" parent="1" source="7"><mxGeometry relative="1" as="geometry"><mxPoint x="130" y="230" as="sourcePoint"/><mxPoint x="400" y="230" as="targetPoint"/><Array as="points"><mxPoint x="120" y="230"/></Array></mxGeometry></mxCell><mxCell id="31" value="" style="endArrow=none;html=1;edgeStyle=orthogonalEdgeStyle;" edge="1" parent="1"><mxGeometry relative="1" as="geometry"><mxPoint x="399.86" y="228" as="sourcePoint"/><mxPoint x="399.86" y="198" as="targetPoint"/></mxGeometry></mxCell><mxCell id="35" value="" style="endArrow=none;html=1;edgeStyle=orthogonalEdgeStyle;" edge="1" parent="1"><mxGeometry relative="1" as="geometry"><mxPoint x="400" y="230" as="sourcePoint"/><mxPoint x="470" y="230" as="targetPoint"/></mxGeometry></mxCell><mxCell id="36" value="" style="endArrow=none;dashed=1;html=1;dashPattern=1 3;strokeWidth=2;" edge="1" parent="1"><mxGeometry width="50" height="50" relative="1" as="geometry"><mxPoint x="470" y="230" as="sourcePoint"/><mxPoint x="540" y="230" as="targetPoint"/></mxGeometry></mxCell><mxCell id="39" value="" style="endArrow=classic;html=1;exitX=1.02;exitY=0.597;exitDx=0;exitDy=0;exitPerimeter=0;entryX=0.001;entryY=0.17;entryDx=0;entryDy=0;entryPerimeter=0;" edge="1" parent="1" source="2" target="4"><mxGeometry width="50" height="50" relative="1" as="geometry"><mxPoint x="100" y="250" as="sourcePoint"/><mxPoint x="250" y="170" as="targetPoint"/></mxGeometry></mxCell></root></mxGraphModel></diagram></mxfile>